<svg width="167.215" height="36.256" viewBox="0 0 167.215 36.256" xmlns="http://www.w3.org/2000/svg"><g id="svgGroup" stroke-linecap="round" fill-rule="evenodd" font-size="9pt" stroke="#ffffff" stroke-width="0.25mm" fill="#ffffff" style="stroke:#ffffff;stroke-width:0.25mm;fill:#ffffff"><path d="M 135.95 28.649 L 134.28 26.329 A 13.668 13.668 0 0 1 132.972 27.378 A 9.853 9.853 0 0 1 131.516 28.231 A 8.997 8.997 0 0 1 129.948 28.806 A 6.398 6.398 0 0 1 128.306 29.02 A 9.199 9.199 0 0 1 125.057 28.449 A 8.817 8.817 0 0 1 124.854 28.37 A 8.522 8.522 0 0 1 122.025 26.524 A 8.344 8.344 0 0 1 120.344 24.135 A 9.789 9.789 0 0 1 120.114 23.611 A 9.444 9.444 0 0 1 119.5 21.178 A 11.878 11.878 0 0 1 119.418 19.761 L 119.418 8.776 L 124.465 8.776 L 124.465 19.761 A 5.627 5.627 0 0 0 124.541 20.709 A 4.343 4.343 0 0 0 124.771 21.551 A 4.272 4.272 0 0 0 125.196 22.379 A 3.561 3.561 0 0 0 125.597 22.878 A 3.453 3.453 0 0 0 126.812 23.694 A 3.957 3.957 0 0 0 128.206 23.972 A 4.521 4.521 0 0 0 128.306 23.973 A 3.153 3.153 0 0 0 129.781 23.611 Q 130.477 23.249 130.996 22.655 A 4.583 4.583 0 0 0 131.812 21.31 Q 132.109 20.559 132.109 19.761 L 132.109 8.776 L 137.175 8.776 L 137.175 28.649 L 135.95 28.649 Z M 115.818 8.814 L 115.818 26.144 A 9.766 9.766 0 0 1 115.021 30.077 A 10.21 10.21 0 0 1 112.84 33.287 Q 111.458 34.66 109.612 35.458 A 9.832 9.832 0 0 1 105.669 36.256 L 103.127 36.219 L 103.127 31.153 L 105.632 31.19 Q 106.62 31.19 107.365 30.978 A 4.131 4.131 0 0 0 107.654 30.884 A 4.58 4.58 0 0 0 108.511 30.469 A 3.775 3.775 0 0 0 109.064 30.049 Q 109.64 29.521 109.983 28.834 A 7.672 7.672 0 0 0 110.53 27.387 Q 110.233 27.869 109.677 28.175 A 5.74 5.74 0 0 1 108.794 28.565 A 6.751 6.751 0 0 1 108.443 28.676 Q 107.766 28.871 107.033 28.945 A 15.042 15.042 0 0 1 106.24 29.005 A 11.913 11.913 0 0 1 105.669 29.02 A 10.781 10.781 0 0 1 102.074 28.425 A 10.262 10.262 0 0 1 101.726 28.296 A 9.599 9.599 0 0 1 98.498 26.227 Q 97.115 24.882 96.317 22.934 A 10.606 10.606 0 0 1 95.623 20.232 A 13.523 13.523 0 0 1 95.52 18.536 A 11.117 11.117 0 0 1 95.968 15.346 A 10.188 10.188 0 0 1 96.317 14.361 A 10.45 10.45 0 0 1 98.244 11.291 A 9.964 9.964 0 0 1 98.498 11.022 Q 99.88 9.611 101.726 8.814 A 9.832 9.832 0 0 1 105.669 8.016 A 7.708 7.708 0 0 1 107.58 8.257 A 9.901 9.901 0 0 1 109.417 8.925 Q 110.308 9.352 111.115 9.927 A 14.057 14.057 0 0 1 112.627 11.17 L 114.594 8.814 L 115.818 8.814 Z M 29.688 0.872 L 29.688 28.649 L 28.463 28.649 L 26.496 25.921 A 16.297 16.297 0 0 1 24.965 27.136 Q 24.158 27.702 23.268 28.12 Q 22.377 28.537 21.44 28.778 A 7.599 7.599 0 0 1 19.538 29.02 Q 17.441 29.02 15.595 28.231 A 10.014 10.014 0 0 1 12.367 26.042 A 10.263 10.263 0 0 1 10.237 22.84 A 11.637 11.637 0 0 1 10.187 22.72 A 10.565 10.565 0 0 1 9.408 19.24 A 12.408 12.408 0 0 1 9.389 18.536 A 11.117 11.117 0 0 1 9.837 15.346 A 10.188 10.188 0 0 1 10.187 14.361 A 10.45 10.45 0 0 1 12.113 11.291 A 9.964 9.964 0 0 1 12.367 11.022 Q 13.749 9.611 15.595 8.814 A 9.832 9.832 0 0 1 19.538 8.016 A 8.777 8.777 0 0 1 20.654 8.089 A 9.919 9.919 0 0 1 20.92 8.127 A 7.196 7.196 0 0 1 22.312 8.489 A 5.764 5.764 0 0 1 23.583 9.148 Q 24.177 9.556 24.585 10.149 L 24.585 0.872 L 29.688 0.872 Z M 158.438 12.339 L 148.938 23.787 A 2.892 2.892 0 0 0 149.532 23.908 A 6.358 6.358 0 0 0 150.126 23.936 A 4.987 4.987 0 0 0 151.555 23.732 A 5.164 5.164 0 0 0 152.844 23.147 A 4.804 4.804 0 0 0 153.92 22.219 Q 154.394 21.672 154.69 21.004 L 158.401 24.733 A 9.99 9.99 0 0 1 156.778 26.533 Q 155.859 27.331 154.792 27.888 A 9.921 9.921 0 0 1 152.547 28.732 Q 151.369 29.02 150.126 29.02 Q 148.029 29.02 146.183 28.24 Q 144.337 27.461 142.955 26.069 Q 141.572 24.678 140.774 22.757 A 10.523 10.523 0 0 1 140.015 19.525 A 12.595 12.595 0 0 1 139.977 18.536 A 12.113 12.113 0 0 1 140.258 15.882 A 10.274 10.274 0 0 1 140.774 14.232 A 10.247 10.247 0 0 1 142.223 11.728 A 9.297 9.297 0 0 1 142.955 10.91 A 9.864 9.864 0 0 1 146.183 8.776 A 10.247 10.247 0 0 1 150.126 8.016 Q 151.369 8.016 152.557 8.313 Q 153.744 8.609 154.811 9.166 A 10.267 10.267 0 0 1 156.806 10.53 A 10.075 10.075 0 0 1 158.438 12.339 Z M 61.75 8.814 L 61.75 28.649 L 60.525 28.649 L 58.559 25.921 A 16.297 16.297 0 0 1 57.028 27.136 Q 56.221 27.702 55.33 28.12 Q 54.439 28.537 53.502 28.778 A 7.599 7.599 0 0 1 51.601 29.02 A 11.069 11.069 0 0 1 48.123 28.48 A 10.435 10.435 0 0 1 47.658 28.315 A 9.367 9.367 0 0 1 44.429 26.264 Q 43.047 24.919 42.249 22.971 Q 41.451 21.023 41.451 18.536 A 11.774 11.774 0 0 1 41.763 15.786 A 10.2 10.2 0 0 1 42.249 14.278 A 10.36 10.36 0 0 1 43.852 11.582 A 9.609 9.609 0 0 1 44.429 10.947 A 9.841 9.841 0 0 1 47.658 8.786 A 10.139 10.139 0 0 1 51.601 8.016 A 7.708 7.708 0 0 1 53.512 8.257 A 9.901 9.901 0 0 1 55.349 8.925 Q 56.239 9.352 57.046 9.927 A 14.057 14.057 0 0 1 58.559 11.17 L 60.525 8.814 L 61.75 8.814 Z M 70.712 0.872 L 70.712 28.649 L 65.609 28.649 L 65.609 0.872 L 70.712 0.872 Z M 93.291 21.821 A 10.941 10.941 0 0 0 93.775 18.536 A 13.073 13.073 0 0 0 93.705 17.164 A 10.618 10.618 0 0 0 92.978 14.222 Q 92.18 12.283 90.807 10.901 A 9.572 9.572 0 0 0 87.587 8.767 A 9.943 9.943 0 0 0 87.063 8.571 A 10.526 10.526 0 0 0 83.626 8.016 A 9.832 9.832 0 0 0 79.683 8.814 Q 77.837 9.611 76.455 11.012 A 9.815 9.815 0 0 0 76.077 11.417 A 10.389 10.389 0 0 0 74.274 14.343 Q 73.477 16.273 73.477 18.536 A 12.195 12.195 0 0 0 73.484 18.951 A 10.583 10.583 0 0 0 74.274 22.683 A 11.637 11.637 0 0 0 74.325 22.803 A 10.263 10.263 0 0 0 76.455 26.004 Q 77.837 27.405 79.683 28.212 A 9.735 9.735 0 0 0 83.626 29.02 A 9.78 9.78 0 0 0 87.587 28.212 A 10.156 10.156 0 0 0 90.807 26.004 A 9.917 9.917 0 0 0 91.141 25.646 A 10.477 10.477 0 0 0 92.978 22.683 A 10.123 10.123 0 0 0 93.291 21.821 Z M 38.649 8.776 L 38.649 28.649 L 33.547 28.649 L 33.547 8.776 L 38.649 8.776 Z M 88.673 18.536 A 6.489 6.489 0 0 0 88.548 17.24 A 5.3 5.3 0 0 0 88.274 16.319 A 5.432 5.432 0 0 0 87.533 15.011 A 4.933 4.933 0 0 0 87.188 14.612 Q 86.502 13.898 85.583 13.517 A 5.065 5.065 0 0 0 83.626 13.137 A 5.065 5.065 0 0 0 81.668 13.517 A 4.598 4.598 0 0 0 80.073 14.612 A 5.127 5.127 0 0 0 79.121 16.045 A 5.978 5.978 0 0 0 79.006 16.319 Q 78.616 17.312 78.616 18.536 A 5.966 5.966 0 0 0 78.809 20.071 A 5.34 5.34 0 0 0 79.006 20.67 A 5.451 5.451 0 0 0 79.829 22.097 A 5.072 5.072 0 0 0 80.073 22.377 A 4.991 4.991 0 0 0 81.668 23.518 A 4.675 4.675 0 0 0 83.626 23.936 A 4.96 4.96 0 0 0 85.583 23.546 A 4.872 4.872 0 0 0 87.188 22.451 Q 87.875 21.746 88.274 20.744 A 5.66 5.66 0 0 0 88.646 19.145 A 6.848 6.848 0 0 0 88.673 18.536 Z M 56.647 18.536 A 5.264 5.264 0 0 0 56.249 16.523 A 5.785 5.785 0 0 0 55.163 14.797 Q 54.477 14.046 53.558 13.591 Q 52.64 13.137 51.601 13.137 A 5.439 5.439 0 0 0 49.758 13.447 A 5.193 5.193 0 0 0 49.643 13.489 A 4.457 4.457 0 0 0 48.047 14.528 A 4.648 4.648 0 0 0 47.208 15.712 A 5.685 5.685 0 0 0 46.98 16.226 A 5.701 5.701 0 0 0 46.66 17.491 A 7.556 7.556 0 0 0 46.591 18.536 A 7.394 7.394 0 0 0 46.685 19.745 A 5.602 5.602 0 0 0 46.98 20.846 A 5.273 5.273 0 0 0 47.536 21.92 A 4.444 4.444 0 0 0 48.047 22.544 A 4.457 4.457 0 0 0 49.643 23.583 A 5.399 5.399 0 0 0 51.536 23.935 A 6.09 6.09 0 0 0 51.601 23.936 Q 52.64 23.936 53.558 23.481 A 5.397 5.397 0 0 0 55.163 22.275 A 5.785 5.785 0 0 0 56.249 20.549 Q 56.647 19.575 56.647 18.536 Z M 110.716 18.536 A 5.264 5.264 0 0 0 110.317 16.523 A 5.785 5.785 0 0 0 109.231 14.797 Q 108.545 14.046 107.626 13.591 Q 106.708 13.137 105.669 13.137 A 5.439 5.439 0 0 0 103.827 13.447 A 5.193 5.193 0 0 0 103.711 13.489 A 4.457 4.457 0 0 0 102.116 14.528 A 4.648 4.648 0 0 0 101.276 15.712 A 5.685 5.685 0 0 0 101.049 16.226 A 5.701 5.701 0 0 0 100.729 17.491 A 7.556 7.556 0 0 0 100.659 18.536 A 6.815 6.815 0 0 0 100.769 19.786 A 5.401 5.401 0 0 0 101.049 20.772 A 5.341 5.341 0 0 0 101.716 21.995 A 4.755 4.755 0 0 0 102.116 22.47 Q 102.793 23.175 103.711 23.555 A 5.065 5.065 0 0 0 105.669 23.936 Q 106.708 23.936 107.626 23.481 A 5.397 5.397 0 0 0 109.231 22.275 A 5.785 5.785 0 0 0 110.317 20.549 Q 110.716 19.575 110.716 18.536 Z M 24.585 18.536 A 5.264 5.264 0 0 0 24.186 16.523 A 5.785 5.785 0 0 0 23.101 14.797 Q 22.414 14.046 21.496 13.591 Q 20.577 13.137 19.538 13.137 Q 18.499 13.137 17.581 13.508 A 4.61 4.61 0 0 0 15.985 14.575 A 4.821 4.821 0 0 0 15.102 15.849 A 5.783 5.783 0 0 0 14.918 16.273 Q 14.528 17.274 14.528 18.536 A 5.59 5.59 0 0 0 14.918 20.614 A 5.586 5.586 0 0 0 15.985 22.34 Q 16.662 23.082 17.581 23.509 A 4.589 4.589 0 0 0 19.538 23.936 Q 20.577 23.936 21.496 23.481 A 5.397 5.397 0 0 0 23.101 22.275 A 5.785 5.785 0 0 0 24.186 20.549 Q 24.585 19.575 24.585 18.536 Z M 8.554 7.218 L 6.494 9.982 L 0 5.956 L 3.08 2.078 L 8.554 7.218 Z M 145.636 21.171 L 151.536 13.341 A 3.012 3.012 0 0 0 151.013 13.198 A 2.673 2.673 0 0 0 150.84 13.174 A 6.546 6.546 0 0 0 150.23 13.138 A 7.304 7.304 0 0 0 150.126 13.137 A 5.065 5.065 0 0 0 148.168 13.517 A 4.658 4.658 0 0 0 146.573 14.603 A 4.994 4.994 0 0 0 145.648 15.968 A 5.874 5.874 0 0 0 145.506 16.3 A 5.574 5.574 0 0 0 145.171 17.639 A 7.111 7.111 0 0 0 145.116 18.536 A 6.676 6.676 0 0 0 145.122 18.813 Q 145.129 18.98 145.144 19.167 Q 145.172 19.52 145.237 19.881 A 7.688 7.688 0 0 0 145.383 20.535 A 7.045 7.045 0 0 0 145.395 20.577 A 2.858 2.858 0 0 0 145.517 20.929 A 2.291 2.291 0 0 0 145.636 21.171 Z M 39.285 4.618 A 3.251 3.251 0 0 0 39.521 3.377 Q 39.521 2.69 39.252 2.069 A 3.355 3.355 0 0 0 38.52 0.993 Q 38.056 0.538 37.434 0.269 A 3.304 3.304 0 0 0 36.107 0 A 3.304 3.304 0 0 0 34.781 0.269 A 3.971 3.971 0 0 0 34.776 0.271 A 3.431 3.431 0 0 0 33.705 0.993 A 3.317 3.317 0 0 0 33.69 1.007 A 3.436 3.436 0 0 0 32.981 2.069 Q 32.712 2.69 32.712 3.377 A 3.695 3.695 0 0 0 32.712 3.388 A 3.236 3.236 0 0 0 32.981 4.694 Q 33.25 5.307 33.705 5.761 A 3.317 3.317 0 0 0 33.719 5.775 A 3.436 3.436 0 0 0 34.781 6.485 A 3.304 3.304 0 0 0 36.107 6.754 A 3.304 3.304 0 0 0 37.434 6.485 Q 38.056 6.216 38.52 5.761 Q 38.983 5.307 39.252 4.694 A 3.145 3.145 0 0 0 39.285 4.617 Z M 167.01 27.917 A 3.268 3.268 0 0 0 167.215 26.756 A 3.134 3.134 0 0 0 166.974 25.531 A 3.092 3.092 0 0 0 166.306 24.529 A 3.219 3.219 0 0 0 165.304 23.852 A 2.94 2.94 0 0 0 165.084 23.767 A 3.132 3.132 0 0 0 164.061 23.602 A 3.1 3.1 0 0 0 162.827 23.852 A 3.304 3.304 0 0 0 161.806 24.529 A 3.142 3.142 0 0 0 161.12 25.531 A 3.034 3.034 0 0 0 160.869 26.756 Q 160.869 27.424 161.12 28.008 A 3.115 3.115 0 0 0 161.806 29.02 Q 162.242 29.446 162.827 29.697 A 3.1 3.1 0 0 0 164.061 29.947 A 3.517 3.517 0 0 0 164.144 29.946 A 3.058 3.058 0 0 0 165.304 29.697 A 3.219 3.219 0 0 0 166.306 29.02 A 3.068 3.068 0 0 0 166.974 28.008 A 3.13 3.13 0 0 0 167.01 27.917 Z" vector-effect="non-scaling-stroke"/></g></svg>