<svg width="41.875" height="30.605" viewBox="0 0 41.875 30.605" xmlns="http://www.w3.org/2000/svg"><g id="svgGroup" stroke-linecap="round" fill-rule="evenodd" font-size="9pt" stroke="#ffffff" stroke-width="0.25mm" fill="#ffffff" style="stroke:#ffffff;stroke-width:0.25mm;fill:#ffffff"><path d="M 31.25 0 L 31.25 29.238 L 29.961 29.238 L 27.891 26.367 A 17.155 17.155 0 0 1 26.279 27.646 A 11.919 11.919 0 0 1 24.492 28.682 A 10.965 10.965 0 0 1 22.568 29.375 Q 21.582 29.629 20.566 29.629 A 10.454 10.454 0 0 1 16.416 28.799 A 10.541 10.541 0 0 1 13.018 26.494 A 10.803 10.803 0 0 1 10.776 23.124 A 12.249 12.249 0 0 1 10.723 22.998 A 11.121 11.121 0 0 1 9.904 19.334 A 13.061 13.061 0 0 1 9.883 18.594 A 11.702 11.702 0 0 1 10.355 15.236 A 10.724 10.724 0 0 1 10.723 14.199 A 11 11 0 0 1 12.75 10.967 A 10.488 10.488 0 0 1 13.018 10.684 A 10.595 10.595 0 0 1 16.416 8.359 Q 18.359 7.52 20.566 7.52 A 9.239 9.239 0 0 1 21.741 7.597 A 10.442 10.442 0 0 1 22.021 7.637 A 7.574 7.574 0 0 1 23.486 8.018 Q 24.199 8.281 24.824 8.711 Q 25.449 9.141 25.879 9.766 L 25.879 0 L 31.25 0 Z M 25.879 18.594 A 5.541 5.541 0 0 0 25.459 16.475 A 6.09 6.09 0 0 0 24.316 14.658 A 5.681 5.681 0 0 0 22.627 13.389 A 4.583 4.583 0 0 0 20.566 12.91 Q 19.473 12.91 18.506 13.301 Q 17.539 13.691 16.826 14.424 Q 16.113 15.156 15.703 16.211 Q 15.293 17.266 15.293 18.594 Q 15.293 19.746 15.703 20.781 Q 16.113 21.816 16.826 22.598 Q 17.539 23.379 18.506 23.828 A 4.831 4.831 0 0 0 20.566 24.277 A 4.583 4.583 0 0 0 22.627 23.799 A 5.681 5.681 0 0 0 24.316 22.529 A 6.09 6.09 0 0 0 25.459 20.713 A 5.541 5.541 0 0 0 25.879 18.594 Z M 9.004 6.68 L 6.836 9.59 L 0 5.352 L 3.242 1.27 L 9.004 6.68 Z M 41.659 28.468 A 3.44 3.44 0 0 0 41.875 27.246 Q 41.875 26.563 41.621 25.957 A 3.255 3.255 0 0 0 40.918 24.902 A 3.389 3.389 0 0 0 39.863 24.189 Q 39.258 23.926 38.555 23.926 A 3.263 3.263 0 0 0 37.256 24.189 A 3.478 3.478 0 0 0 36.182 24.902 Q 35.723 25.352 35.459 25.957 A 3.193 3.193 0 0 0 35.195 27.246 A 3.311 3.311 0 0 0 35.459 28.564 Q 35.723 29.18 36.182 29.629 A 3.478 3.478 0 0 0 37.256 30.342 A 3.263 3.263 0 0 0 38.555 30.605 A 3.702 3.702 0 0 0 38.642 30.604 A 3.219 3.219 0 0 0 39.863 30.342 Q 40.469 30.078 40.918 29.629 Q 41.367 29.18 41.621 28.564 A 3.295 3.295 0 0 0 41.659 28.468 Z" vector-effect="non-scaling-stroke"/></g></svg>